# xmcd
#
# Track frame offsets:
# 150
# 14570
# 30242
# 45030
# 63760
# 80167
# 89867
# 105127
# 125792
# 137727
# 151087
#
# Disc length: 2306 seconds
#
#
# Revision: 0
# Processed by: cddbd v1.5.2PL0 Copyright (c) Steve Scherf et al.
# Submitted via: FreeRIP 2.951 
#
DISCID=8009000b
DTITLE=Marisa Monte - Barulhinho Bom - CD 1
DYEAR=1900
DGENRE=Pop
TTITLE0=Panis et Circenses
TTITLE1=De Noite na Cama
TTITLE2=Beija Eu
TTITLE3=Give Me Love (Give me Peace on Earth)
TTITLE4=Ainda Lembro
TTITLE5=A menina Dança
TTITLE6=Dança da Solidão
TTITLE7=Ao Meu Redor
TTITLE8=Bem Leve
TTITLE9=Segue o Seco
TTITLE10=O Xote das Meninas
EXTD=
EXTT0=
EXTT1=
EXTT2=
EXTT3=
EXTT4=
EXTT5=
EXTT6=
EXTT7=
EXTT8=
EXTT9=
EXTT10=
PLAYORDER=
